<svg width="180" height="36" viewBox="0 0 180 36" fill="none" xmlns="http://www.w3.org/2000/svg">
<path d="M12.4236 28.6356C12.268 28.63 12.1162 28.5878 11.9814 28.5125C11.8359 28.4387 11.7089 28.3349 11.6094 28.2085L6.49014 21.4255C6.38869 21.3074 6.30285 21.2446 6.23001 21.2396H6.08694C5.97258 21.2412 5.86196 21.2792 5.77219 21.3476L2.54664 24.0408C2.43392 24.1602 2.34566 24.2991 2.28652 24.4502C2.21852 24.5957 2.18137 24.7529 2.17726 24.9125V28.1055C2.17937 28.2441 2.12629 28.3781 2.02899 28.4799C1.9841 28.5313 1.92787 28.5725 1.86442 28.6003C1.80097 28.6281 1.73189 28.6419 1.66222 28.6407H0.499457C0.432673 28.6403 0.366785 28.6258 0.306521 28.598C0.246257 28.5702 0.193108 28.5298 0.150889 28.4799C0.0528714 28.3783 -0.00112078 28.2444 1.76431e-05 28.1055V14.0998C-0.000595342 13.9611 0.0533242 13.8273 0.150889 13.7255C0.193108 13.6755 0.246257 13.6352 0.306521 13.6074C0.366785 13.5796 0.432673 13.565 0.499457 13.5647H1.66222C1.73189 13.5635 1.80097 13.5773 1.86442 13.6051C1.92787 13.6329 1.9841 13.6741 2.02899 13.7255C2.12584 13.8276 2.17885 13.9614 2.17726 14.0998V21.1818C2.17726 21.3351 2.20068 21.4331 2.2449 21.4481C2.27438 21.4675 2.30832 21.4795 2.34374 21.4833C2.42416 21.4793 2.50058 21.4482 2.55965 21.3954L11.5028 13.9039C11.6272 13.7961 11.7709 13.711 11.9268 13.6527C12.0768 13.5917 12.2374 13.5584 12.4002 13.5547H14.6112C14.7647 13.5547 14.8428 13.5899 14.8428 13.6627C14.827 13.7521 14.7802 13.8336 14.7101 13.8938L8.2772 19.2625C8.18967 19.3232 8.12778 19.4124 8.10291 19.5137C8.10291 19.5857 8.10291 19.6335 8.10291 19.6569C8.10347 19.7791 8.14448 19.898 8.21997 19.9961L14.5176 28.201C14.5684 28.2684 14.5973 28.3489 14.6008 28.4321C14.6008 28.5628 14.5141 28.6281 14.3407 28.6281L12.4236 28.6356Z" fill="white"/>
<path d="M17.8913 14.5313C17.6696 14.2635 17.5567 13.9267 17.574 13.5841C17.5716 13.2607 17.6836 12.9461 17.8913 12.6923C18.0079 12.5578 18.1561 12.452 18.3235 12.3838C18.4909 12.3157 18.6727 12.2871 18.8538 12.3004C19.032 12.287 19.211 12.312 19.378 12.3737C19.5449 12.4354 19.6955 12.5322 19.8189 12.6571C20.0372 12.9188 20.1491 13.2484 20.1336 13.5841C20.1366 13.9104 20.0257 14.2281 19.8189 14.486C19.7034 14.6231 19.5553 14.7312 19.3873 14.8012C19.2193 14.8712 19.0363 14.901 18.8538 14.888C18.676 14.9012 18.4974 14.8761 18.331 14.8144C18.1645 14.7527 18.0143 14.656 17.8913 14.5313V14.5313ZM18.2399 28.6375C18.1841 28.6376 18.1291 28.6257 18.0787 28.6027C18.0283 28.5797 17.9838 28.5461 17.9486 28.5043C17.8675 28.4196 17.8229 28.3082 17.8237 28.1928V17.7947C17.8214 17.7357 17.8313 17.677 17.8527 17.6218C17.8741 17.5666 17.9067 17.516 17.9486 17.4731C17.9853 17.4336 18.0303 17.4021 18.0804 17.3804C18.1306 17.3588 18.185 17.3476 18.2399 17.3475H19.4703C19.5277 17.3466 19.5847 17.3572 19.6376 17.3789C19.6904 17.4005 19.738 17.4326 19.7773 17.4731C19.8191 17.516 19.8517 17.5666 19.8731 17.6218C19.8946 17.677 19.9044 17.7357 19.9021 17.7947V28.1953C19.9029 28.3107 19.8583 28.4221 19.7773 28.5068C19.7396 28.5497 19.6925 28.584 19.6394 28.607C19.5863 28.6301 19.5285 28.6413 19.4703 28.64L18.2399 28.6375Z" fill="white"/>
<path d="M26.2283 27.9459C25.2473 27.4902 24.4143 26.7839 23.8195 25.9034C23.2324 25.0218 22.9283 23.9921 22.9455 22.944C22.9283 22.0704 23.1057 21.2033 23.4657 20.4016C23.8005 19.6755 24.297 19.0295 24.9198 18.5099C25.5479 17.9881 26.2725 17.5857 27.0554 17.3241C27.8756 17.0481 28.7387 16.9096 29.6073 16.9147C30.6766 16.9005 31.7329 17.1422 32.682 17.6181C33.5718 18.0638 34.3272 18.7241 34.8748 19.5349C35.2367 20.1465 35.4742 20.8193 35.5745 21.5171L35.6396 21.9617C35.6868 22.2568 35.7094 22.555 35.7072 22.8536C35.7072 22.9365 35.7072 23.032 35.7072 23.14C35.7003 23.2481 35.6575 23.3512 35.5849 23.4339C35.551 23.4752 35.5079 23.5086 35.4589 23.5317C35.4098 23.5547 35.356 23.5668 35.3014 23.5671H25.3724C25.2086 23.5671 25.1123 23.6374 25.1123 23.7806C25.1132 23.8415 25.1246 23.9018 25.1461 23.959L25.3464 24.2981C25.4932 24.575 25.6675 24.8375 25.8667 25.0819C26.089 25.3645 26.3622 25.6062 26.6731 25.7954C27.6043 26.3431 28.7679 26.6169 30.1639 26.6169C31.0433 26.6515 31.9203 26.5051 32.7366 26.1873C33.0903 26.019 33.3947 25.8658 33.6496 25.7226L34.032 25.5266C34.0931 25.493 34.162 25.4748 34.2323 25.4739C34.3096 25.4743 34.3852 25.4964 34.4498 25.5374C34.5144 25.5784 34.5653 25.6366 34.5965 25.705L35.2624 27.0063C35.1613 27.0772 35.0562 27.1426 34.9476 27.2023C34.9436 27.2003 34.9392 27.1993 34.9346 27.1993C34.9301 27.1993 34.9257 27.2003 34.9216 27.2023L34.5965 27.4058C33.7673 27.889 32.8651 28.2442 31.9224 28.4584C31.2246 28.6142 30.5107 28.6926 29.7946 28.692C28.5618 28.7151 27.3406 28.4596 26.2283 27.9459V27.9459ZM33.5846 21.7482C33.66 21.713 33.699 21.6703 33.699 21.6226C33.674 21.4173 33.6296 21.2146 33.5664 21.0171L33.517 20.8739C33.3967 20.5987 33.2197 20.3499 32.9967 20.1429C32.1296 19.3591 31.0024 18.9663 29.6151 18.9646C27.2965 18.9646 25.8389 19.6965 25.2424 21.1603L25.1435 21.3915L25.1253 21.5347C25.127 21.5974 25.1449 21.6587 25.1773 21.713C25.2016 21.7453 25.2345 21.7706 25.2726 21.7861C25.3107 21.8016 25.3524 21.8067 25.3932 21.801H33.3037C33.3996 21.8057 33.4954 21.7903 33.5846 21.7557V21.7482Z" fill="white"/>
<path d="M47.9777 28.585C47.9207 28.5861 47.8641 28.5747 47.8123 28.5517C47.7605 28.5286 47.7148 28.4945 47.6786 28.4519C47.6013 28.3644 47.5597 28.2528 47.5615 28.1378C47.5615 24.4047 47.5537 22.4518 47.5381 22.2793C47.5225 22.1085 47.5069 21.9552 47.4965 21.8246L47.4627 21.6111C47.4094 21.2566 47.2858 20.9154 47.0985 20.6062C46.7874 20.1429 46.3572 19.7654 45.8499 19.5108C45.318 19.2396 44.7241 19.1014 44.1227 19.1089C43.5717 19.1039 43.0264 19.2163 42.5255 19.438C41.6153 19.85 40.8802 20.5528 40.4445 21.4277C40.3599 21.5864 40.2978 21.7554 40.2598 21.9301L40.2104 22.1437C40.1641 22.4388 40.1424 22.737 40.1453 23.0355V28.1353C40.1517 28.2472 40.1167 28.3576 40.0465 28.4469C40.0103 28.4895 39.9646 28.5236 39.9128 28.5466C39.861 28.5697 39.8044 28.5811 39.7474 28.58H38.517C38.4614 28.5793 38.4065 28.567 38.3563 28.5441C38.306 28.5211 38.2614 28.4879 38.2256 28.4469C38.144 28.3614 38.0993 28.2491 38.1008 28.1328V17.7397C38.0974 17.6186 38.1421 17.5009 38.2256 17.4106C38.2614 17.3695 38.306 17.3364 38.3563 17.3134C38.4065 17.2904 38.4614 17.2782 38.517 17.2774H39.7474C39.8044 17.2763 39.861 17.2878 39.9128 17.3108C39.9646 17.3339 40.0103 17.368 40.0465 17.4106C40.1249 17.5033 40.1664 17.62 40.1636 17.7397V18.9179C40.1636 19.0737 40.2026 19.1491 40.278 19.1491C40.3475 19.139 40.4121 19.1083 40.4627 19.0611L40.7228 18.83C40.8763 18.6743 41.0714 18.4959 41.3029 18.2949C41.5335 18.0943 41.7777 17.9088 42.0339 17.7397C42.8129 17.2698 43.7167 17.0288 44.6351 17.0463C45.6057 17.0121 46.5669 17.2401 47.4106 17.7045C47.9068 17.9855 48.3382 18.3616 48.6782 18.8096C49.0182 19.2576 49.2596 19.7682 49.3876 20.3097C49.4574 20.5739 49.5129 20.8414 49.5541 21.1111L49.6061 21.4679C49.6373 21.8598 49.6555 22.1587 49.6555 22.3597V28.1378C49.657 28.2541 49.6123 28.3665 49.5307 28.4519C49.4949 28.4931 49.4504 28.5263 49.4001 28.5493C49.3498 28.5723 49.295 28.5845 49.2393 28.585H47.9777Z" fill="white"/>
<path d="M53.55 28.6984C53.4941 28.6981 53.4389 28.6857 53.3885 28.6623C53.3381 28.6388 53.2938 28.6048 53.2587 28.5627C53.1772 28.4782 53.1325 28.3667 53.1338 28.2512V13.2105C53.1325 13.095 53.1772 12.9834 53.2587 12.8989C53.2939 12.8572 53.3384 12.8236 53.3888 12.8005C53.4392 12.7775 53.4943 12.7656 53.55 12.7658H54.7804C54.8375 12.7641 54.8943 12.7753 54.9462 12.7984C54.9981 12.8215 55.0438 12.8559 55.0796 12.8989C55.1567 12.9855 55.1983 13.0963 55.1966 13.2105V28.2462C55.1983 28.3604 55.1567 28.4712 55.0796 28.5577C55.0439 28.6011 54.9983 28.6359 54.9464 28.6594C54.8945 28.6829 54.8377 28.6946 54.7804 28.6934L53.55 28.6984Z" fill="white"/>
<path d="M61.5641 27.9452C60.8462 27.5657 60.2145 27.0509 59.7063 26.4313C59.1981 25.8118 58.8237 25.1 58.6054 24.3383C58.3871 23.5765 58.3293 22.7802 58.4354 21.9964C58.5415 21.2127 58.8093 20.4574 59.223 19.7754C59.7878 18.8858 60.5986 18.1663 61.5641 17.6978C62.6437 17.2049 63.8231 16.9492 65.0173 16.9492C66.2115 16.9492 67.3908 17.2049 68.4704 17.6978C69.4295 18.1695 70.2344 18.8887 70.7959 19.7754C71.2297 20.4515 71.5143 21.2068 71.6318 21.9941C71.7494 22.7813 71.6973 23.5835 71.479 24.3504C71.2607 25.1173 70.8808 25.8325 70.3631 26.451C69.8454 27.0696 69.2011 27.5783 68.4704 27.9452C67.3927 28.4446 66.2126 28.7038 65.0173 28.7038C63.8219 28.7038 62.6418 28.4446 61.5641 27.9452V27.9452ZM67.3883 26.1867C68.0533 25.8917 68.6245 25.4302 69.0427 24.8501C69.4422 24.2852 69.6512 23.6149 69.641 22.9308V22.6997C69.6492 22.0221 69.4403 21.3587 69.0427 20.8004C68.6253 20.2197 68.0539 19.7581 67.3883 19.4639C66.6459 19.1388 65.8402 18.9707 65.0251 18.9707C64.2099 18.9707 63.4042 19.1388 62.6618 19.4639C61.9931 19.7565 61.4188 20.2183 60.9996 20.8004C60.6021 21.3587 60.3931 22.0221 60.4013 22.6997V22.9208C60.3912 23.6048 60.6001 24.2752 60.9996 24.8401C61.4195 25.4215 61.9937 25.8832 62.6618 26.1766C63.4048 26.4995 64.2103 26.6665 65.0251 26.6665C65.8398 26.6665 66.6453 26.4995 67.3883 26.1766V26.1867Z" fill="white"/>
<path d="M84.3687 28.585C84.3116 28.5865 84.2549 28.5753 84.203 28.5522C84.1511 28.5291 84.1054 28.4948 84.0695 28.4519C83.9922 28.3644 83.9506 28.2528 83.9525 28.1378C83.9525 24.4047 83.9438 22.4518 83.9264 22.2793C83.9108 22.1085 83.8952 21.9552 83.8848 21.8246L83.851 21.6111C83.7978 21.2566 83.6741 20.9154 83.4868 20.6062C83.1768 20.143 82.7474 19.7655 82.2408 19.5108C81.7078 19.2399 81.1133 19.1017 80.511 19.1089C79.9609 19.104 79.4164 19.2164 78.9164 19.438C78.4429 19.6484 78.0141 19.9424 77.6522 20.3047C77.3191 20.6335 77.044 21.0129 76.838 21.4277C76.7541 21.5864 76.6928 21.7554 76.6559 21.9301L76.6065 22.1437C76.5593 22.4387 76.5367 22.7369 76.5389 23.0355V28.1353C76.5407 28.2503 76.4991 28.3619 76.4218 28.4494C76.3859 28.4923 76.3402 28.5266 76.2884 28.5497C76.2365 28.5728 76.1798 28.584 76.1227 28.5825H74.9027C74.8471 28.582 74.7922 28.5698 74.7419 28.5468C74.6916 28.5238 74.6471 28.4906 74.6114 28.4494C74.5297 28.364 74.485 28.2516 74.4865 28.1353V17.7397C74.4831 17.6186 74.5278 17.5009 74.6114 17.4106C74.6471 17.3694 74.6916 17.3361 74.7419 17.3132C74.7922 17.2902 74.8471 17.278 74.9027 17.2774H76.1305C76.1876 17.276 76.2443 17.2872 76.2962 17.3103C76.348 17.3334 76.3937 17.3677 76.4296 17.4106C76.508 17.5033 76.5495 17.62 76.5467 17.7397V18.9179C76.5467 19.0737 76.5857 19.1491 76.6638 19.1491C76.7325 19.1388 76.7961 19.1081 76.8458 19.0611L77.106 18.83C77.262 18.6743 77.4545 18.4959 77.6886 18.2949C77.9187 18.0937 78.1629 17.9082 78.4196 17.7397C79.1985 17.2694 80.1024 17.0284 81.0208 17.0463C81.9914 17.0121 82.9526 17.2401 83.7964 17.7045C84.2929 17.9853 84.7247 18.3613 85.0652 18.8094C85.4056 19.2574 85.6475 19.768 85.7759 20.3097C85.854 20.6187 85.9086 20.885 85.9424 21.1111L85.9918 21.4679C86.0257 21.8598 86.0413 22.1587 86.0413 22.3597V28.1378C86.0427 28.2541 85.9981 28.3665 85.9164 28.4519C85.8807 28.4931 85.8361 28.5263 85.7859 28.5493C85.7356 28.5723 85.6807 28.5845 85.6251 28.585H84.3687Z" fill="white"/>
<path d="M92.2631 32.7381L91.3812 32.3111C91.3056 32.2625 91.2444 32.1957 91.2038 32.1173C91.1632 32.0388 91.1446 31.9515 91.1497 31.8639L91.1653 31.6855L91.5815 30.6681C91.6017 30.5902 91.6488 30.5214 91.715 30.4729C91.7813 30.4245 91.8627 30.3994 91.9457 30.4018C92.0031 30.4023 92.0598 30.4143 92.1122 30.4369L92.5284 30.6153C92.7885 30.7459 93.1215 30.8891 93.5091 31.0424C94.3703 31.3488 95.2839 31.4945 96.2014 31.472C97.0591 31.5417 97.9128 31.2991 98.5948 30.792C99.2768 30.2849 99.7378 29.5498 99.8873 28.7311C99.9628 28.4322 100.025 28.1784 100.069 27.9624L100.119 27.6433C100.165 27.3895 100.187 27.1323 100.186 26.8746C100.186 26.7791 100.163 26.7339 100.119 26.7339C100.075 26.7339 100.002 26.7791 99.9029 26.8746L99.6688 27.1082C99.4781 27.2902 99.267 27.4512 99.0393 27.5881C97.8064 28.3488 96.3688 28.742 94.9059 28.7186C93.7895 28.7422 92.6862 28.4823 91.7064 27.9649C90.8037 27.4801 90.0629 26.7568 89.5708 25.8797C89.0508 24.9491 88.7874 23.9048 88.806 22.8475C88.7829 21.778 89.0645 20.7229 89.6202 19.7976C90.1641 18.9168 90.949 18.1979 91.8885 17.72C92.9214 17.2019 94.0726 16.9428 95.2363 16.9663C96.5789 16.9551 97.8998 17.2936 99.0601 17.9461C99.3047 18.1018 99.5024 18.24 99.6584 18.3581L99.8743 18.5365C99.9275 18.575 99.9904 18.5993 100.056 18.6068C100.145 18.6068 100.192 18.5289 100.192 18.3757V17.6647C100.189 17.6058 100.199 17.547 100.221 17.4918C100.242 17.4366 100.275 17.3861 100.317 17.3432C100.353 17.3038 100.397 17.2722 100.447 17.2506C100.497 17.2289 100.551 17.2177 100.605 17.2175H101.836C101.893 17.2166 101.95 17.2273 102.003 17.2489C102.056 17.2706 102.103 17.3027 102.143 17.3432C102.184 17.3861 102.217 17.4366 102.238 17.4918C102.26 17.547 102.27 17.6058 102.267 17.6647C102.267 23.6824 102.262 26.7808 102.252 26.96C102.252 27.1333 102.228 27.2841 102.218 27.4147L102.184 27.8619C102.132 28.5431 101.987 29.2147 101.752 29.8591C101.458 30.623 100.995 31.3163 100.397 31.8915C99.8434 32.4173 99.1814 32.8247 98.454 33.0873C97.7336 33.3476 96.9705 33.4804 96.2014 33.4793C94.6181 33.4642 93.3053 33.2171 92.2631 32.7381ZM98.1055 26.1837C98.7583 25.8814 99.3106 25.4089 99.7 24.8196C100.074 24.2257 100.272 23.5439 100.272 22.8487C100.272 22.1535 100.074 21.4717 99.7 20.8779C99.3031 20.2947 98.7528 19.8239 98.1055 19.5137C97.3637 19.1637 96.5455 18.9914 95.7201 19.0113C94.8661 18.9971 94.0197 19.1688 93.2437 19.5137C92.5599 19.818 91.9719 20.2923 91.5399 20.8879C91.124 21.4692 90.9058 22.1611 90.9156 22.8676C90.9065 23.5654 91.1249 24.2483 91.5399 24.8196C91.9733 25.4115 92.5611 25.8822 93.2437 26.1837C94.0193 26.5298 94.866 26.7016 95.7201 26.6862C96.5459 26.6961 97.3627 26.5197 98.1055 26.1712V26.1837Z" fill="white"/>
<path d="M105.561 28.6747C105.495 28.6744 105.429 28.66 105.369 28.6327C105.309 28.6054 105.255 28.5657 105.213 28.5164C105.116 28.4133 105.063 28.2788 105.064 28.1396V14.1289C105.063 13.9905 105.116 13.8569 105.213 13.7545C105.255 13.7049 105.309 13.6649 105.369 13.6371C105.429 13.6094 105.495 13.5946 105.561 13.5938H112.226C112.699 13.6 113.172 13.6361 113.641 13.7018C114.371 13.7949 115.093 13.9436 115.8 14.1464C116.126 14.2431 116.435 14.388 116.715 14.576C117.614 15.2175 118.062 16.1571 118.06 17.3948C118.076 17.9316 117.942 18.4626 117.671 18.9318C117.401 19.4009 117.004 19.7908 116.523 20.0602L116.307 20.2034C116.185 20.2863 116.125 20.3642 116.125 20.4371C116.125 20.5099 116.193 20.5778 116.325 20.6506L116.846 20.9018C117.497 21.2437 118.026 21.7696 118.359 22.4092C118.651 22.9732 118.793 23.5981 118.773 24.228C118.773 25.8426 118.175 27.015 116.978 27.7452C116.233 28.1897 115.392 28.4646 114.52 28.5491C114.333 28.5811 114.143 28.5987 113.953 28.6018L113.721 28.6194C113.433 28.6446 113.1 28.6546 112.723 28.6546L105.561 28.6747ZM113.625 19.6683L114.057 19.598C114.6 19.4935 115.092 19.2167 115.454 18.8117C115.71 18.5109 115.846 18.131 115.836 17.7415C115.859 17.4424 115.789 17.1436 115.635 16.8831C115.482 16.6227 115.251 16.4124 114.973 16.2793C114.315 16.0078 113.607 15.8685 112.892 15.8698C112.701 15.8564 110.983 15.8506 107.739 15.8523C107.672 15.8526 107.606 15.8671 107.546 15.8949C107.485 15.9227 107.432 15.9631 107.39 16.013C107.291 16.114 107.237 16.2483 107.239 16.3874V19.1885C107.238 19.3274 107.292 19.4614 107.39 19.5628C107.433 19.6124 107.486 19.6525 107.546 19.6802C107.606 19.708 107.672 19.7228 107.739 19.7236H112.621C112.956 19.7217 113.29 19.7032 113.623 19.6683H113.625ZM114.145 26.3383C114.673 26.2789 115.185 26.1283 115.657 25.8937C115.957 25.7204 116.203 25.471 116.367 25.1725C116.531 24.874 116.608 24.5379 116.588 24.2004C116.588 23.1754 115.981 22.5055 114.767 22.1906C114.471 22.1213 114.172 22.0676 113.87 22.0298L113.222 21.9947H107.723C107.657 21.9947 107.592 22.0082 107.532 22.0342C107.472 22.0601 107.418 22.098 107.374 22.1454C107.324 22.1967 107.285 22.2571 107.259 22.323C107.233 22.389 107.221 22.4593 107.224 22.5298V25.9012C107.221 25.9717 107.233 26.042 107.259 26.1079C107.285 26.1739 107.324 26.2343 107.374 26.2856C107.418 26.3329 107.472 26.3708 107.532 26.3968C107.592 26.4228 107.657 26.4362 107.723 26.4363H112.824C113.27 26.4322 113.715 26.3995 114.156 26.3383H114.145Z" fill="white"/>
<path d="M132.854 28.6386C132.798 28.6387 132.744 28.6268 132.694 28.6037C132.644 28.5807 132.6 28.5471 132.565 28.5054C132.484 28.4206 132.439 28.3093 132.44 28.1939V26.8925C132.44 26.7494 132.401 26.6765 132.323 26.6765C132.254 26.6874 132.19 26.7191 132.141 26.7669L131.881 26.9981C131.689 27.1862 131.477 27.3545 131.249 27.5005C130.131 28.2409 128.804 28.632 127.448 28.621C126.292 28.6472 125.148 28.3877 124.124 27.8673C123.205 27.389 122.449 26.6639 121.947 25.7796C121.427 24.849 121.163 23.8047 121.182 22.7474C121.159 21.6779 121.441 20.6229 121.996 19.6975C122.536 18.8216 123.312 18.1036 124.241 17.6199C125.265 17.0995 126.409 16.8401 127.565 16.8662C129.131 16.8204 130.662 17.3127 131.886 18.2555L132.102 18.4339C132.149 18.485 132.214 18.5173 132.284 18.5243C132.386 18.5243 132.435 18.4414 132.435 18.2731V17.5596C132.433 17.501 132.442 17.4426 132.464 17.3878C132.485 17.333 132.518 17.2829 132.56 17.2405C132.596 17.2011 132.641 17.1696 132.69 17.148C132.74 17.1263 132.794 17.1151 132.849 17.1149H134.079C134.134 17.115 134.188 17.1262 134.238 17.1479C134.289 17.1695 134.334 17.2011 134.37 17.2405C134.412 17.2829 134.445 17.333 134.466 17.3878C134.488 17.4426 134.498 17.501 134.495 17.5596V28.1964C134.496 28.3118 134.451 28.4231 134.37 28.5079C134.335 28.5497 134.291 28.5833 134.24 28.6063C134.19 28.6293 134.135 28.6412 134.079 28.6411L132.854 28.6386ZM130.328 26.0711C130.983 25.7645 131.54 25.2933 131.941 24.7069C132.322 24.1199 132.524 23.4413 132.524 22.7486C132.524 22.0559 132.322 21.3773 131.941 20.7903C131.538 20.2076 130.981 19.7399 130.328 19.4362C129.571 19.0867 128.74 18.9146 127.901 18.9338C127.08 18.9204 126.266 19.0925 125.526 19.4362C124.864 19.7372 124.298 20.205 123.887 20.7903C123.502 21.3756 123.297 22.0549 123.297 22.7486C123.297 23.4423 123.502 24.1216 123.887 24.7069C124.296 25.2959 124.863 25.7672 125.526 26.0711C126.267 26.4136 127.08 26.5856 127.901 26.5735C128.74 26.5915 129.571 26.4194 130.328 26.0711V26.0711Z" fill="white"/>
<path d="M146.401 28.585C146.344 28.5861 146.287 28.5747 146.235 28.5516C146.184 28.5285 146.138 28.4944 146.102 28.4518C146.024 28.3644 145.983 28.2527 145.985 28.1378C145.985 24.4046 145.977 22.4518 145.961 22.2793C145.943 22.1084 145.93 21.9552 145.92 21.8245L145.886 21.611C145.832 21.2564 145.707 20.9152 145.519 20.6061C145.209 20.1429 144.78 19.7655 144.273 19.5108C143.741 19.2398 143.147 19.1017 142.546 19.1088C141.995 19.1039 141.45 19.2163 140.949 19.4379C140.476 19.6491 140.049 19.9429 139.687 20.3046C139.352 20.6327 139.076 21.0122 138.87 21.4276C138.787 21.5868 138.726 21.7557 138.688 21.9301L138.639 22.1436C138.592 22.4387 138.569 22.7369 138.571 23.0354V28.1353C138.573 28.2497 138.532 28.361 138.457 28.4493C138.42 28.4919 138.375 28.526 138.323 28.5491C138.271 28.5721 138.215 28.5836 138.158 28.5825H136.927C136.871 28.5819 136.817 28.5697 136.766 28.5467C136.716 28.5238 136.671 28.4905 136.636 28.4493C136.554 28.3639 136.509 28.2515 136.511 28.1353V17.7397C136.508 17.6186 136.552 17.5009 136.636 17.4106C136.671 17.3693 136.716 17.3361 136.766 17.3131C136.817 17.2901 136.871 17.2779 136.927 17.2774H138.158C138.215 17.2763 138.271 17.2877 138.323 17.3108C138.375 17.3338 138.42 17.368 138.457 17.4106C138.534 17.5036 138.575 17.6203 138.571 17.7397V18.9179C138.571 19.0736 138.61 19.149 138.688 19.149C138.757 19.1393 138.821 19.1085 138.87 19.0611L139.13 18.83C139.286 18.6742 139.479 18.4958 139.713 18.2949C139.943 18.0936 140.187 17.9081 140.444 17.7397C141.223 17.2697 142.127 17.0288 143.045 17.0463C144.016 17.0123 144.977 17.2403 145.821 17.7045C146.317 17.9854 146.748 18.3615 147.088 18.8096C147.428 19.2576 147.67 19.7681 147.798 20.3097C147.876 20.6187 147.93 20.885 147.964 21.1111L148.014 21.4678C148.047 21.8597 148.063 22.1587 148.063 22.3596V28.1378C148.066 28.2537 148.022 28.3662 147.941 28.4518C147.905 28.4929 147.86 28.5261 147.81 28.549C147.76 28.572 147.705 28.5843 147.649 28.585H146.401Z" fill="white"/>
<path d="M160.133 28.619C159.861 28.606 159.605 28.4906 159.42 28.2974L155.258 23.5016C155.213 23.4563 155.159 23.4203 155.099 23.3957C155.039 23.371 154.975 23.3584 154.91 23.3584C154.808 23.359 154.709 23.3897 154.626 23.4463L152.415 25.2049C152.314 25.2938 152.235 25.4038 152.184 25.5264C152.121 25.6486 152.087 25.7822 152.082 25.9183V28.1668C152.083 28.2817 152.039 28.3928 151.96 28.4783C151.924 28.5194 151.88 28.5525 151.829 28.5755C151.779 28.5985 151.724 28.6107 151.669 28.6115H150.628C150.572 28.6109 150.518 28.5987 150.467 28.5757C150.417 28.5528 150.373 28.5195 150.337 28.4783C150.256 28.3935 150.211 28.2822 150.212 28.1668V13.1386C150.211 13.0231 150.255 12.9116 150.337 12.8271C150.372 12.785 150.416 12.751 150.467 12.7275C150.517 12.7041 150.572 12.6917 150.628 12.6914H151.669C151.725 12.6921 151.78 12.7046 151.83 12.728C151.88 12.7515 151.925 12.7853 151.96 12.8271C152.04 12.9125 152.083 13.0236 152.082 13.1386V22.8057C152.082 22.984 152.139 23.072 152.249 23.072C152.313 23.0622 152.372 23.0311 152.415 22.984L159.064 17.5978C159.172 17.51 159.296 17.4435 159.431 17.4019C159.552 17.3578 159.681 17.3332 159.811 17.329H161.873C162.006 17.329 162.071 17.3591 162.071 17.4194C162.071 17.4797 162.035 17.525 161.957 17.5978L156.843 21.6802C156.744 21.7656 156.694 21.8359 156.694 21.8962V22.0018C156.694 22.0997 156.729 22.1947 156.793 22.2706L162.079 28.2999C162.123 28.3576 162.152 28.4249 162.162 28.4959C162.162 28.5813 162.089 28.6215 161.946 28.6215L160.133 28.619Z" fill="white"/>
<path d="M178.161 13.2506C179.177 13.2506 180 12.4294 180 11.4163C180 10.4033 179.177 9.58203 178.161 9.58203C177.146 9.58203 176.322 10.4033 176.322 11.4163C176.322 12.4294 177.146 13.2506 178.161 13.2506Z" fill="white"/>
<path d="M164.001 13.2506C165.017 13.2506 165.84 12.4294 165.84 11.4163C165.84 10.4033 165.017 9.58203 164.001 9.58203C162.985 9.58203 162.162 10.4033 162.162 11.4163C162.162 12.4294 162.985 13.2506 164.001 13.2506Z" fill="white"/>
<path fill-rule="evenodd" clip-rule="evenodd" d="M176.435 14.9919C176.374 14.084 175.636 13.3438 174.722 13.2833C174.535 13.2693 174.358 13.2879 174.185 13.3252C173.891 13.3904 173.588 13.2972 173.373 13.0831L169.536 9.25619C169.317 9.01875 169.247 8.6882 169.34 8.37628C169.392 8.20868 169.42 8.03176 169.42 7.84554C169.42 7.73846 169.41 7.63138 169.392 7.52896C169.35 7.16582 169.471 6.79337 169.747 6.51404C170.027 6.2347 170.4 6.11831 170.764 6.16021C170.787 6.16487 170.941 6.18814 171.081 6.18814C171.226 6.18814 171.375 6.16487 171.399 6.16021C171.763 6.11831 172.136 6.23936 172.416 6.51404C172.696 6.79337 172.813 7.16582 172.771 7.52896C172.752 7.63138 172.743 7.73846 172.743 7.84554C172.743 8.90236 173.639 9.74968 174.712 9.67519C175.618 9.61467 176.355 8.87908 176.416 7.9759C176.491 6.90511 175.641 6.01123 174.582 6.01123C174.474 6.01123 174.367 6.02054 174.264 6.03917C173.9 6.08107 173.527 5.96002 173.247 5.68534C172.967 5.406 172.85 5.03356 172.892 4.67042C172.934 4.47023 172.915 4.22814 172.911 4.16761C172.827 3.33426 172.183 2.66385 171.361 2.54281C171.268 2.52884 171.175 2.51953 171.081 2.51953C170.988 2.51953 170.895 2.52884 170.801 2.54281C169.98 2.66851 169.336 3.33892 169.252 4.16761C169.247 4.22814 169.228 4.50747 169.27 4.67042C169.312 5.03356 169.191 5.406 168.916 5.68534C168.636 5.96468 168.262 6.08107 167.898 6.03917C167.796 6.02054 167.688 6.01123 167.581 6.01123C166.522 6.01123 165.672 6.90045 165.747 7.97124C165.807 8.87908 166.545 9.61932 167.46 9.67985C167.646 9.69381 167.824 9.67519 167.996 9.63794C168.29 9.57277 168.594 9.66588 168.808 9.88004L172.645 13.7069C172.864 13.9444 172.934 14.2749 172.841 14.5868C172.789 14.7545 172.761 14.9314 172.761 15.1176C172.761 15.2247 172.771 15.3317 172.789 15.4342C172.831 15.7973 172.71 16.1698 172.435 16.4491C172.155 16.7284 171.781 16.8448 171.417 16.8029C171.394 16.7983 171.24 16.775 171.1 16.775C170.955 16.775 170.806 16.7983 170.783 16.8029C170.419 16.8448 170.045 16.7238 169.765 16.4491C169.485 16.1698 169.368 15.7973 169.41 15.4342C169.429 15.3317 169.438 15.2247 169.438 15.1176C169.438 14.0608 168.542 13.2134 167.469 13.2879C166.564 13.3485 165.826 14.084 165.765 14.9872C165.691 16.058 166.54 16.9519 167.6 16.9519C167.707 16.9519 167.814 16.9426 167.917 16.924C168.281 16.8821 168.654 17.0031 168.934 17.2778C169.214 17.5571 169.331 17.9296 169.289 18.2927C169.247 18.4929 169.266 18.735 169.27 18.7955C169.354 19.6289 169.999 20.2993 170.82 20.4203C170.913 20.4343 171.007 20.4436 171.1 20.4436C171.193 20.4436 171.287 20.4343 171.38 20.4203C172.201 20.2946 172.845 19.6242 172.929 18.7955C172.934 18.735 172.953 18.4557 172.911 18.2927C172.869 17.9296 172.99 17.5571 173.266 17.2778C173.546 16.9984 173.919 16.8821 174.283 16.924C174.386 16.9426 174.493 16.9519 174.6 16.9519C175.66 16.9519 176.509 16.0627 176.435 14.9919Z" fill="white"/>
</svg>
