<svg width="18" height="18" viewBox="0 0 18 18" fill="none" xmlns="http://www.w3.org/2000/svg">
<path d="M15.999 10.7311C17.015 10.7311 17.838 9.90987 17.838 8.89677C17.838 7.88377 17.015 7.0625 15.999 7.0625C14.984 7.0625 14.16 7.88377 14.16 8.89677C14.16 9.90987 14.984 10.7311 15.999 10.7311Z" fill="white"/>
<path d="M1.839 10.7311C2.855 10.7311 3.67799 9.90987 3.67799 8.89677C3.67799 7.88377 2.855 7.0625 1.839 7.0625C0.823004 7.0625 0 7.88377 0 8.89677C0 9.90987 0.823004 10.7311 1.839 10.7311Z" fill="white"/>
<path fill-rule="evenodd" clip-rule="evenodd" d="M14.273 12.4724C14.212 11.5645 13.474 10.8243 12.56 10.7638C12.373 10.7498 12.196 10.7684 12.023 10.8057C11.729 10.8709 11.426 10.7777 11.211 10.5636L7.37399 6.73666C7.15499 6.49922 7.085 6.16867 7.178 5.85675C7.23 5.68915 7.258 5.51223 7.258 5.32601C7.258 5.21893 7.248 5.11185 7.23 5.00943C7.188 4.64629 7.30899 4.27384 7.58499 3.99451C7.86499 3.71517 8.23801 3.59878 8.60201 3.64068C8.62501 3.64534 8.77899 3.66861 8.91899 3.66861C9.06399 3.66861 9.213 3.64534 9.237 3.64068C9.601 3.59878 9.974 3.71983 10.254 3.99451C10.534 4.27384 10.651 4.64629 10.609 5.00943C10.59 5.11185 10.581 5.21893 10.581 5.32601C10.581 6.38283 11.477 7.23015 12.55 7.15566C13.456 7.09514 14.193 6.35955 14.254 5.45637C14.329 4.38558 13.479 3.4917 12.42 3.4917C12.312 3.4917 12.205 3.50101 12.102 3.51964C11.738 3.56154 11.365 3.44049 11.085 3.16581C10.805 2.88647 10.688 2.51403 10.73 2.15089C10.772 1.9507 10.753 1.70861 10.749 1.64808C10.665 0.81473 10.021 0.14432 9.19899 0.0232799C9.10599 0.00930991 9.01299 0 8.91899 0C8.82599 0 8.73299 0.00930991 8.63899 0.0232799C7.81799 0.14898 7.174 0.81939 7.09 1.64808C7.085 1.70861 7.066 1.98794 7.108 2.15089C7.15 2.51403 7.029 2.88647 6.754 3.16581C6.474 3.44515 6.09999 3.56154 5.73599 3.51964C5.63399 3.50101 5.52599 3.4917 5.41899 3.4917C4.35999 3.4917 3.50999 4.38092 3.58499 5.45171C3.64499 6.35955 4.38301 7.09979 5.29801 7.16032C5.48401 7.17428 5.662 7.15566 5.834 7.11841C6.128 7.05324 6.432 7.14635 6.646 7.36051L10.483 11.1874C10.702 11.4249 10.772 11.7554 10.679 12.0673C10.627 12.235 10.599 12.4119 10.599 12.5981C10.599 12.7052 10.609 12.8122 10.627 12.9147C10.669 13.2778 10.548 13.6503 10.273 13.9296C9.993 14.2089 9.61901 14.3253 9.25501 14.2834C9.23201 14.2788 9.078 14.2555 8.938 14.2555C8.793 14.2555 8.644 14.2788 8.621 14.2834C8.257 14.3253 7.883 14.2043 7.603 13.9296C7.323 13.6503 7.206 13.2778 7.248 12.9147C7.267 12.8122 7.276 12.7052 7.276 12.5981C7.276 11.5413 6.37999 10.6939 5.30699 10.7684C4.40199 10.829 3.664 11.5645 3.603 12.4677C3.529 13.5385 4.37801 14.4324 5.43801 14.4324C5.54501 14.4324 5.65201 14.4231 5.75501 14.4045C6.11901 14.3626 6.492 14.4836 6.772 14.7583C7.052 15.0376 7.169 15.4101 7.127 15.7732C7.085 15.9734 7.104 16.2155 7.108 16.276C7.192 17.1094 7.83701 17.7798 8.65801 17.9008C8.75101 17.9148 8.845 17.9241 8.938 17.9241C9.031 17.9241 9.125 17.9148 9.218 17.9008C10.039 17.7751 10.683 17.1047 10.767 16.276C10.772 16.2155 10.791 15.9362 10.749 15.7732C10.707 15.4101 10.828 15.0376 11.104 14.7583C11.384 14.4789 11.757 14.3626 12.121 14.4045C12.224 14.4231 12.331 14.4324 12.438 14.4324C13.498 14.4324 14.347 13.5432 14.273 12.4724Z" fill="white"/>
</svg>
